<svg width="81" height="81" viewBox="0 0 81 81" fill="none" xmlns="http://www.w3.org/2000/svg">
<path d="M40.5 14.3965C26.1065 14.3965 14.3965 26.1065 14.3965 40.5C14.3965 54.8935 26.1065 66.6035 40.5 66.6035C54.8935 66.6035 66.6035 54.8935 66.6035 40.5C66.6035 26.1065 54.8935 14.3965 40.5 14.3965ZM40.5 61.8574C28.7235 61.8574 19.1426 52.2765 19.1426 40.5C19.1426 28.7235 28.7235 19.1426 40.5 19.1426C52.2765 19.1426 61.8574 28.7235 61.8574 40.5C61.8574 52.2765 52.2765 61.8574 40.5 61.8574ZM48.6804 38.3774L34.4421 31.2582C33.7063 30.8903 32.8325 30.9298 32.1333 31.3622C31.4335 31.7946 31.0078 32.5584 31.0078 33.3809V47.6191C31.0078 48.4416 31.4335 49.2054 32.1333 49.6378C32.8343 50.071 33.708 50.1088 34.4421 49.7418L48.6804 42.6226C49.4844 42.2205 49.9922 41.3989 49.9922 40.5C49.9922 39.6011 49.4844 38.7795 48.6804 38.3774ZM35.7539 43.7794V37.2205L42.3129 40.5L35.7539 43.7794ZM79.8364 31.642C79.6004 30.5897 78.6842 29.8289 77.6062 29.7901C75.7477 29.7232 74.0911 28.5803 73.3862 26.8784C72.6831 25.1802 73.0441 23.2033 74.306 21.8417C75.038 21.0519 75.1465 19.8683 74.5703 18.9586C71.3917 13.9409 67.0591 9.60831 62.0414 6.42953C61.1316 5.8532 59.9479 5.96188 59.1583 6.69373C57.7968 7.95572 55.8202 8.31705 54.1218 7.61368C52.4198 6.90873 51.2768 5.25234 51.2099 3.39377C51.1711 2.31594 50.4103 1.39978 49.358 1.16358C46.7936 0.588199 43.7359 0 40.5 0C37.2641 0 34.2064 0.588199 31.642 1.16358C30.5897 1.39978 29.8289 2.31594 29.7901 3.39377C29.7232 5.25234 28.5803 6.90873 26.8784 7.61368C25.1802 8.31674 23.2033 7.95588 21.8417 6.69373C21.0521 5.96173 19.8686 5.8532 18.9586 6.42953C13.9407 9.60831 9.60815 13.9409 6.42969 18.9586C5.85336 19.8683 5.96204 21.0519 6.69405 21.8417C7.95619 23.2033 8.31721 25.1802 7.61384 26.8781C6.90889 28.5802 5.25234 29.7232 3.39377 29.79C2.31594 29.8287 1.39978 30.5895 1.16358 31.6419C0.588199 34.2062 0 37.2638 0 40.5C0 43.7362 0.588199 46.7938 1.16358 49.358C1.39962 50.4103 2.31578 51.1711 3.39377 51.2099C5.25234 51.2766 6.90873 52.4197 7.61384 54.1218C8.31705 55.8198 7.95604 57.7967 6.69405 59.1583C5.96204 59.9481 5.85352 61.1317 6.42969 62.0414C9.60831 67.0591 13.9407 71.3917 18.9586 74.5705C19.8684 75.1468 21.0519 75.0381 21.8418 74.3063C23.2033 73.0443 25.1799 72.6829 26.8782 73.3865C28.5803 74.0914 29.7232 75.748 29.7901 77.6064C29.8289 78.6842 30.5897 79.6004 31.642 79.8366C34.2062 80.4118 37.264 81 40.5 81C43.736 81 46.7938 80.4118 49.358 79.8364C50.4103 79.6002 51.1711 78.6841 51.2099 77.6062C51.2768 75.7477 52.4197 74.0913 54.1216 73.3863C55.8196 72.6831 57.7965 73.0441 59.1582 74.3061C59.9482 75.0381 61.1317 75.1466 62.0414 74.5703C67.0595 71.3915 71.3919 67.059 74.5703 62.0413C75.1466 61.1316 75.038 59.9479 74.306 59.1582C73.044 57.7967 72.6829 55.8196 73.3862 54.1216C74.0914 52.4197 75.7478 51.2766 77.6062 51.2099C78.6841 51.1711 79.6002 50.4103 79.8364 49.358C80.4118 46.7938 81 43.7362 81 40.5C81 37.2638 80.4118 34.2062 79.8364 31.642ZM75.5455 46.7266C72.6323 47.4307 70.1696 49.4851 69.0012 52.3056V52.3059C67.8389 55.1124 68.1208 58.2929 69.6654 60.8457C67.2727 64.2639 64.2638 67.2727 60.8456 69.6655C58.2929 68.1208 55.1123 67.8392 52.3056 69.0014C49.4853 70.1696 47.4307 72.6325 46.7266 75.5455C44.7957 75.9326 42.659 76.2539 40.5 76.2539C38.341 76.2539 36.2043 75.9326 34.2734 75.5455C33.5694 72.6323 31.5147 70.1696 28.6943 69.0014C25.8877 67.8389 22.7071 68.121 20.1544 69.6655C16.7362 67.2727 13.7273 64.2639 11.3346 60.8457C12.8793 58.2929 13.1611 55.1123 11.9988 52.3056C10.8304 49.4853 8.36768 47.4307 5.45453 46.7266C5.0674 44.7957 4.74609 42.659 4.74609 40.5C4.74609 38.341 5.0674 36.2043 5.45453 34.2734C8.36768 33.5693 10.8304 31.5147 11.9988 28.6944C13.1612 25.8879 12.8792 22.7072 11.3346 20.1544C13.7273 16.7362 16.7362 13.7274 20.1544 11.3346C22.7074 12.8792 25.8877 13.1611 28.6944 11.9988C31.5145 10.8306 33.5691 8.36752 34.2734 5.45469C36.2045 5.0674 38.3412 4.74609 40.5 4.74609C42.6588 4.74609 44.7955 5.0674 46.7266 5.45453C47.4307 8.36736 49.4853 10.8304 52.3057 11.9986C55.1123 13.1611 58.2929 12.879 60.8456 11.3345C64.2638 13.7273 67.2727 16.7361 69.6654 20.1543C68.1207 22.7069 67.8389 25.8876 69.0012 28.6944C70.1696 31.5147 72.6323 33.5693 75.5455 34.2733C75.9326 36.2043 76.2539 38.341 76.2539 40.5C76.2539 42.659 75.9326 44.7957 75.5455 46.7266Z" fill="white"/>
<path d="M56.5 20C55.8949 20.122 53.5 23.5 53.5 23.5C55.9649 25.6184 57.0305 26.7186 58 28.5C58 28.5 61.8606 25.6056 62 25.5C62.1394 25.3945 57.1051 19.8781 56.5 20Z" fill="black"/>
<path d="M57 54L61 56.5C60.9265 56.7022 59.7433 58.1179 58 60L54 57C54.8606 56.4 55.8441 55.4604 57 54Z" fill="black"/>
<path fill-rule="evenodd" clip-rule="evenodd" d="M33 31C31.977 31.2993 31.5006 31.6632 31 33V48C31.5441 49.3923 32.0027 49.7768 33 50C33.8887 50.0054 34.3065 49.86 35 49.5L49 42.5C50.5556 40.8815 50.2889 40.0149 49 38.5L34 31H33ZM36.5 37.5C36.0048 37.3022 35.8132 37.5143 35.5 38V43C35.7012 43.4747 35.9121 43.5947 36.5 43.5L41.5 41C41.7876 40.6519 42.0192 40.4671 41.5 40L36.5 37.5Z" fill="url(#paint0_linear)"/>
<path d="M35.5 38C35.8132 37.5143 36.0048 37.3022 36.5 37.5L41.5 40C42.0192 40.4671 41.7876 40.6519 41.5 41L36.5 43.5C35.9121 43.5947 35.7012 43.4747 35.5 43V38Z" fill="url(#paint1_linear)"/>
<defs>
<linearGradient id="paint0_linear" x1="40.5345" y1="31" x2="40.5345" y2="50.0001" gradientUnits="userSpaceOnUse">
<stop offset="0.94912" stop-color="#0ECB70"/>
<stop offset="1" stop-color="#0C2519" stop-opacity="0"/>
</linearGradient>
<linearGradient id="paint1_linear" x1="40.5345" y1="31" x2="40.5345" y2="50.0001" gradientUnits="userSpaceOnUse">
<stop offset="0.94912" stop-color="#0ECB70"/>
<stop offset="1" stop-color="#0C2519" stop-opacity="0"/>
</linearGradient>
</defs>
</svg>
